<mxfile host="app.diagrams.net" modified="2021-01-13T11:51:40.747Z" agent="5.0 (Macintosh; Intel Mac OS X 10_15_6) AppleWebKit/605.1.15 (KHTML, like Gecko) Version/14.0.2 Safari/605.1.15" etag="3E8bHXH9vQXQstrHBRjc" version="14.1.8" type="github">
  <diagram id="bAvTHHYI_KYfITCIM_JM" name="Page-1">
    <mxGraphModel dx="1527" dy="845" grid="1" gridSize="10" guides="1" tooltips="1" connect="1" arrows="1" fold="1" page="1" pageScale="1" pageWidth="827" pageHeight="1169" math="0" shadow="0">
      <root>
        <mxCell id="0" />
        <mxCell id="1" parent="0" />
      </root>
    </mxGraphModel>
  </diagram>
</mxfile>
